<svg width="40" height="40" viewBox="0 0 40 40" fill="none" xmlns="http://www.w3.org/2000/svg">
<circle cx="20" cy="20" r="20" fill="#F4FFF2"/>
<path d="M24 12C26.175 12.0121 27.3529 12.1086 28.1213 12.8769C29 13.7556 29 15.1698 29 17.9983V23.9983C29 26.8267 29 28.2409 28.1213 29.1196C27.2426 29.9983 25.8284 29.9983 23 29.9983H17C14.1716 29.9983 12.7574 29.9983 11.8787 29.1196C11 28.2409 11 26.8267 11 23.9983V17.9983C11 15.1698 11 13.7556 11.8787 12.8769C12.6471 12.1086 13.825 12.0121 16 12" stroke="#202020" stroke-width="1.5"/>
<path d="M16 11.5C16 10.6716 16.6716 10 17.5 10H22.5C23.3284 10 24 10.6716 24 11.5V12.5C24 13.3284 23.3284 14 22.5 14H17.5C16.6716 14 16 13.3284 16 12.5V11.5Z" stroke="#202020" stroke-width="1.5"/>
<path d="M23 21L20 21M20 21L17 21M20 21L20 18M20 21L20 24" stroke="#202020" stroke-width="1.5" stroke-linecap="round"/>
</svg>
