<svg width="22" height="26" viewBox="0 0 22 26" fill="none" xmlns="http://www.w3.org/2000/svg">
<path d="M4.31446 4.29649C4.31446 4.29649 4.40478 4.34145 4.40504 4.34098C4.78476 3.6728 5.35444 2.89006 5.90274 2.50193C6.54594 2.04599 7.26513 1.81046 8.05986 1.79481C8.85485 1.7787 9.3743 2.04489 10.4423 2.57471L12.6331 3.65067L10.8303 7.49651L12.4687 8.30113L15.0466 2.80193L11.231 0.909048C10.0363 0.296719 8.93015 -0.0463281 7.80456 0.00505556C6.67923 0.0559697 5.66953 0.395583 4.77528 1.02267C3.98367 1.57852 3.27985 2.6288 2.77459 3.54025C2.77366 3.53995 2.77407 3.54119 2.77459 3.54025L4.31446 4.29649Z" fill="#0037FF"/>
<path d="M2.98793 3.6281C2.98793 3.6281 3.0787 3.67208 3.07851 3.67259C2.80689 4.39385 2.56684 5.33848 2.61413 6.01911C2.66912 6.81794 2.93964 7.53953 3.425 8.18384C3.91017 8.82865 4.43806 9.07683 5.5101 9.59799L7.70096 10.674L9.50379 6.82811L11.1422 7.63274L8.56428 13.1319L4.73424 11.27C3.52001 10.6992 2.56644 10.0307 1.90129 9.09991C1.23594 8.16957 0.86296 7.1509 0.781306 6.04453C0.709591 5.0647 1.0696 3.84557 1.44806 2.87185C1.44726 2.8713 1.44845 2.87085 1.44806 2.87185L2.98793 3.6281Z" fill="#0037FF"/>
<path d="M17.8024 10.8065C17.8024 10.8065 17.7584 10.8989 17.7589 10.8992C18.4117 11.2879 19.1764 11.871 19.5556 12.4322C20.0011 13.0905 20.2312 13.8267 20.2465 14.6401C20.2622 15.4538 20.0022 15.9855 19.4845 17.0786L18.4333 19.3211L14.676 17.4758L13.8899 19.1527L19.2625 21.7913L21.1119 17.8859C21.7101 16.6631 22.0453 15.5309 21.9951 14.3788C21.9453 13.227 21.6135 12.1935 21.0009 11.2782C20.4578 10.4679 19.4317 9.74752 18.5412 9.23037C18.5403 9.22983 18.5415 9.22942 18.5412 9.23037L17.8024 10.8065Z" fill="#0037FF"/>
<path d="M18.4554 9.44873C18.4554 9.44873 18.4124 9.54164 18.4119 9.54144C17.7072 9.26343 16.7843 9.01772 16.1194 9.06612C15.3389 9.12241 14.6339 9.3993 14.0044 9.89609C13.3745 10.3927 13.132 10.933 12.6228 12.0303L11.5716 14.2727L15.329 16.118L14.5429 17.795L9.1702 15.1564L10.9893 11.2362C11.5469 9.99334 12.2 9.01731 13.1095 8.3365C14.0184 7.65548 15.0136 7.27372 16.0945 7.19014C17.0518 7.11674 18.2429 7.48522 19.1942 7.8726C19.1948 7.87177 19.1952 7.873 19.1942 7.8726L18.4554 9.44873Z" fill="#0037FF"/>
<path d="M4.19764 22.3742C4.19764 22.3742 4.24156 22.2818 4.2411 22.2815C3.5883 21.8929 2.82357 21.3098 2.44436 20.7486C1.99892 20.0902 1.7688 19.3541 1.75352 18.5406C1.73778 17.7269 1.99784 17.1952 2.51547 16.1021L3.56668 13.8597L7.32403 15.7049L8.11014 14.028L2.73747 11.3894L0.888133 15.2948C0.289892 16.5177 -0.0452622 17.6498 0.00493925 18.8019C0.054682 19.9538 0.386482 20.9873 0.999144 21.9026C1.5422 22.7128 2.56831 23.4332 3.45879 23.9504C3.45851 23.9513 3.45971 23.9509 3.45879 23.9504L4.19764 22.3742Z" fill="#0037FF"/>
<path d="M3.54463 23.732C3.54463 23.732 3.5876 23.6391 3.58809 23.6393C4.29276 23.9173 5.21565 24.163 5.88063 24.1146C6.66108 24.0583 7.36607 23.7814 7.99555 23.2846C8.62553 22.7881 8.868 22.2477 9.37717 21.1504L10.4284 18.908L6.67102 17.0627L7.45713 15.3858L12.8298 18.0243L11.0107 21.9446C10.4531 23.1874 9.79996 24.1634 8.89054 24.8442C7.98161 25.5253 6.98638 25.907 5.90547 25.9906C4.94817 26.064 3.7571 25.6955 2.80578 25.3081C2.8048 25.3077 2.80524 25.309 2.80578 25.3081L3.54463 23.732Z" fill="#0037FF"/>
</svg>
