<svg width="121" height="13" viewBox="0 0 121 13" fill="none" xmlns="http://www.w3.org/2000/svg">
<path d="M11.3594 7.3125C11.3594 7.99479 11.2396 8.6224 11 9.19531C10.7656 9.76823 10.4401 10.263 10.0234 10.6797C9.60677 11.0911 9.11198 11.4141 8.53906 11.6484C7.96615 11.8828 7.34375 12 6.67188 12H1.1875C1.04167 12 0.90625 11.974 0.78125 11.9219C0.65625 11.8698 0.546875 11.7995 0.453125 11.7109C0.364583 11.6172 0.294271 11.5078 0.242188 11.3828C0.190104 11.2578 0.164062 11.1224 0.164062 10.9766V1.82031C0.164062 1.67969 0.190104 1.54688 0.242188 1.42188C0.294271 1.29688 0.364583 1.1875 0.453125 1.09375C0.546875 1 0.65625 0.927083 0.78125 0.875C0.90625 0.822917 1.04167 0.796875 1.1875 0.796875H6.67188C7.34375 0.796875 7.96615 0.914062 8.53906 1.14844C9.11198 1.38281 9.60677 1.70833 10.0234 2.125C10.4401 2.53646 10.7656 3.03125 11 3.60938C11.2396 4.18229 11.3594 4.80729 11.3594 5.48438V7.3125ZM9.32812 5.48438C9.32812 5.08854 9.26302 4.72656 9.13281 4.39844C9.00781 4.07031 8.82812 3.79167 8.59375 3.5625C8.35938 3.32812 8.07812 3.14844 7.75 3.02344C7.42708 2.89323 7.06771 2.82812 6.67188 2.82812H2.19531V9.96875H6.67188C7.06771 9.96875 7.42708 9.90625 7.75 9.78125C8.07812 9.65104 8.35938 9.47135 8.59375 9.24219C8.82812 9.00781 9.00781 8.72917 9.13281 8.40625C9.26302 8.07812 9.32812 7.71354 9.32812 7.3125V5.48438ZM24.3438 12H22.3125V9.25H15.1719V12H13.1406V6.39844C13.1406 5.58073 13.2812 4.82812 13.5625 4.14062C13.8438 3.45312 14.2344 2.86198 14.7344 2.36719C15.2344 1.8724 15.8255 1.48698 16.5078 1.21094C17.1901 0.934896 17.9349 0.796875 18.7422 0.796875H23.3203C23.4609 0.796875 23.5938 0.822917 23.7188 0.875C23.8438 0.927083 23.9531 1 24.0469 1.09375C24.1406 1.1875 24.2135 1.29688 24.2656 1.42188C24.3177 1.54688 24.3438 1.67969 24.3438 1.82031V12ZM15.1719 7.21875H22.3125V2.82812H18.7422C18.6797 2.82812 18.5469 2.83854 18.3438 2.85938C18.1458 2.875 17.9141 2.91927 17.6484 2.99219C17.388 3.0651 17.112 3.17708 16.8203 3.32812C16.5286 3.47917 16.2604 3.6875 16.0156 3.95312C15.7708 4.21875 15.5677 4.55208 15.4062 4.95312C15.25 5.34896 15.1719 5.83073 15.1719 6.39844V7.21875ZM38.4688 7.46875C38.4688 8.15104 38.3516 8.77865 38.1172 9.35156C37.8828 9.92448 37.5573 10.4193 37.1406 10.8359C36.724 11.2526 36.2292 11.5781 35.6562 11.8125C35.0885 12.0417 34.4688 12.1562 33.7969 12.1562H31.0469C30.375 12.1562 29.7526 12.0417 29.1797 11.8125C28.6068 11.5781 28.112 11.2526 27.6953 10.8359C27.2786 10.4193 26.9505 9.92448 26.7109 9.35156C26.4766 8.77865 26.3594 8.15104 26.3594 7.46875V5.32812C26.3594 4.65104 26.4766 4.02604 26.7109 3.45312C26.9505 2.875 27.2786 2.38021 27.6953 1.96875C28.112 1.55208 28.6068 1.22656 29.1797 0.992188C29.7526 0.757812 30.375 0.640625 31.0469 0.640625H33.7969C34.4688 0.640625 35.0885 0.757812 35.6562 0.992188C36.2292 1.22656 36.724 1.55208 37.1406 1.96875C37.5573 2.38021 37.8828 2.875 38.1172 3.45312C38.3516 4.02604 38.4688 4.65104 38.4688 5.32812V7.46875ZM36.4375 5.32812C36.4375 4.92708 36.3724 4.5651 36.2422 4.24219C36.1172 3.91406 35.9375 3.63542 35.7031 3.40625C35.474 3.17188 35.1953 2.99219 34.8672 2.86719C34.5443 2.73698 34.1875 2.67188 33.7969 2.67188H31.0469C30.651 2.67188 30.2891 2.73698 29.9609 2.86719C29.638 2.99219 29.3594 3.17188 29.125 3.40625C28.8906 3.63542 28.7083 3.91406 28.5781 4.24219C28.4531 4.5651 28.3906 4.92708 28.3906 5.32812V7.46875C28.3906 7.86979 28.4531 8.23438 28.5781 8.5625C28.7083 8.88542 28.8906 9.16406 29.125 9.39844C29.3594 9.6276 29.638 9.80729 29.9609 9.9375C30.2891 10.0625 30.651 10.125 31.0469 10.125H33.7812C34.1771 10.125 34.5365 10.0625 34.8594 9.9375C35.1875 9.80729 35.4688 9.6276 35.7031 9.39844C35.9375 9.16406 36.1172 8.88542 36.2422 8.5625C36.3724 8.23438 36.4375 7.86979 36.4375 7.46875V5.32812ZM59.9844 0.796875L58.1094 11.2969C58.0677 11.5052 57.974 11.6849 57.8281 11.8359C57.6823 11.987 57.5052 12.0833 57.2969 12.125C57.0833 12.1615 56.8802 12.138 56.6875 12.0547C56.5 11.9714 56.3516 11.8411 56.2422 11.6641L52.5234 5.55469L48.7969 11.6641C48.7083 11.8151 48.5859 11.9323 48.4297 12.0156C48.2786 12.099 48.1146 12.1406 47.9375 12.1406C47.6927 12.1406 47.4766 12.0625 47.2891 11.9062C47.1016 11.75 46.987 11.5469 46.9453 11.2969L45.0547 0.796875H47.1172L48.4609 8.19531L51.6641 3.08594C51.7526 2.9349 51.8724 2.81771 52.0234 2.73438C52.1797 2.65104 52.3464 2.60938 52.5234 2.60938C52.7005 2.60938 52.8646 2.65104 53.0156 2.73438C53.1667 2.81771 53.2917 2.9349 53.3906 3.08594L56.5781 8.19531L57.9219 0.796875H59.9844ZM72.5938 12H70.5625V9.25H63.4219V12H61.3906V6.39844C61.3906 5.58073 61.5312 4.82812 61.8125 4.14062C62.0938 3.45312 62.4844 2.86198 62.9844 2.36719C63.4844 1.8724 64.0755 1.48698 64.7578 1.21094C65.4401 0.934896 66.1849 0.796875 66.9922 0.796875H71.5703C71.7109 0.796875 71.8438 0.822917 71.9688 0.875C72.0938 0.927083 72.2031 1 72.2969 1.09375C72.3906 1.1875 72.4635 1.29688 72.5156 1.42188C72.5677 1.54688 72.5938 1.67969 72.5938 1.82031V12ZM63.4219 7.21875H70.5625V2.82812H66.9922C66.9297 2.82812 66.7969 2.83854 66.5938 2.85938C66.3958 2.875 66.1641 2.91927 65.8984 2.99219C65.638 3.0651 65.362 3.17708 65.0703 3.32812C64.7786 3.47917 64.5104 3.6875 64.2656 3.95312C64.0208 4.21875 63.8177 4.55208 63.6562 4.95312C63.5 5.34896 63.4219 5.83073 63.4219 6.39844V7.21875ZM85.25 12H75.9844C75.8385 12 75.7031 11.974 75.5781 11.9219C75.4531 11.8698 75.3438 11.7995 75.25 11.7109C75.1615 11.6172 75.0911 11.5078 75.0391 11.3828C74.987 11.2578 74.9609 11.1224 74.9609 10.9766V0.796875H76.9922V9.96875H85.25V12ZM97.0312 12H87.7656C87.6198 12 87.4844 11.974 87.3594 11.9219C87.2344 11.8698 87.125 11.7995 87.0312 11.7109C86.9427 11.6172 86.8724 11.5078 86.8203 11.3828C86.7682 11.2578 86.7422 11.1224 86.7422 10.9766V0.796875H88.7734V9.96875H97.0312V12ZM107.688 7.42188H101.273V5.375H107.688V7.42188ZM108.602 12H101.273C100.992 12 100.685 11.9505 100.352 11.8516C100.018 11.7526 99.7083 11.5911 99.4219 11.3672C99.1406 11.138 98.9036 10.8438 98.7109 10.4844C98.5234 10.1198 98.4297 9.67448 98.4297 9.14844V1.82031C98.4297 1.67969 98.4557 1.54688 98.5078 1.42188C98.5599 1.29688 98.6302 1.1875 98.7188 1.09375C98.8125 1 98.9219 0.927083 99.0469 0.875C99.1719 0.822917 99.3073 0.796875 99.4531 0.796875H108.602V2.82812H100.461V9.14844C100.461 9.41406 100.531 9.61719 100.672 9.75781C100.812 9.89844 101.018 9.96875 101.289 9.96875H108.602V12ZM120.695 2.82812H116.219V12H114.188V2.82812H109.703V0.796875H120.695V2.82812Z" fill="#0037FF"/>
</svg>
