<svg width="68" height="68" viewBox="0 0 68 68" fill="none" xmlns="http://www.w3.org/2000/svg">
<path fill-rule="evenodd" clip-rule="evenodd" d="M10.7653 3.36649C8.02922 4.02074 5.37037 6.22127 4.08628 8.89414C3.37704 10.3706 3.30568 10.7988 3.20268 14.1948L3.09082 17.8892H10.4981H17.9052V10.5003V3.11151L14.7533 3.13892C13.0196 3.15423 11.2251 3.2566 10.7653 3.36649ZM26.7573 22.1776V41.2647H45.8132H64.8688L64.7915 25.8825L64.714 10.5003L63.9278 8.89414C62.9264 6.84784 61.1179 5.03637 59.0749 4.03337L57.4714 3.24585L42.1143 3.1682L26.7573 3.09082V22.1776ZM3.15171 34.0103V41.2647H10.5285H17.9052V34.0103V26.7558H10.5285H3.15171V34.0103ZM3.23889 50.5602C3.14849 50.7961 3.14179 52.3375 3.22387 53.9859C3.42639 58.0543 4.03934 59.6654 6.21293 61.8428C8.53781 64.1712 10.0148 64.6924 14.418 64.7392L17.7711 64.7747L17.8424 57.453L17.9138 50.1313H10.6586C4.26251 50.1313 3.38374 50.1821 3.23889 50.5602ZM26.7573 57.5202V64.909H33.9999H41.2425V57.5202V50.1313H33.9999H26.7573V57.5202ZM50.1574 57.453L50.2287 64.7747L52.3634 64.8542C58.1141 65.0683 61.9932 63.1169 63.9645 59.0181C64.6139 57.6682 64.6963 57.1553 64.7971 53.8258L64.909 50.1313H57.4974H50.086L50.1574 57.453Z" stroke="#0037FF" stroke-width="6" stroke-linejoin="round"/>
</svg>
